<?xml version="1.0" encoding="UTF-8" standalone="no"?>
<!-- Created with Inkscape (http://www.inkscape.org/) -->

<svg
   width="50"
   height="50"
   viewBox="0 0 13.229166 13.229167"
   version="1.1"
   id="svg5"
   inkscape:version="1.2.1 (9c6d41e410, 2022-07-14)"
   sodipodi:docname="EventDotSelected.svg"
   xmlns:inkscape="http://www.inkscape.org/namespaces/inkscape"
   xmlns:sodipodi="http://sodipodi.sourceforge.net/DTD/sodipodi-0.dtd"
   xmlns="http://www.w3.org/2000/svg"
   xmlns:svg="http://www.w3.org/2000/svg">
  <sodipodi:namedview
     id="namedview7"
     pagecolor="#ffffff"
     bordercolor="#666666"
     borderopacity="1.0"
     inkscape:showpageshadow="2"
     inkscape:pageopacity="0.0"
     inkscape:pagecheckerboard="0"
     inkscape:deskcolor="#d1d1d1"
     inkscape:document-units="mm"
     showgrid="false"
     inkscape:zoom="4.7572176"
     inkscape:cx="66.425383"
     inkscape:cy="64.428417"
     inkscape:window-width="1920"
     inkscape:window-height="991"
     inkscape:window-x="-9"
     inkscape:window-y="-9"
     inkscape:window-maximized="1"
     inkscape:current-layer="layer1" />
  <defs
     id="defs2" />
  <g
     inkscape:label="Layer 1"
     inkscape:groupmode="layer"
     id="layer1">
    <path
       style="fill:#ffffff;stroke:#000000;stroke-width:0.430528;fill-opacity:1"
       id="path234"
       sodipodi:type="arc"
       sodipodi:cx="6.6145844"
       sodipodi:cy="6.6145787"
       sodipodi:rx="6.3993177"
       sodipodi:ry="6.399312"
       sodipodi:start="0"
       sodipodi:end="6.2697463"
       sodipodi:open="true"
       sodipodi:arc-type="arc"
       d="M 13.013902,6.6145787 A 6.3993177,6.399312 0 0 1 6.6360845,13.013855 6.3993177,6.399312 0 0 1 0.21541117,6.6575786 6.3993177,6.399312 0 0 1 6.5500852,0.21559176 6.3993177,6.399312 0 0 1 13.013324,6.5285809" />
    <path
       style="fill:#000000;fill-opacity:1;stroke:#000000;stroke-width:0.215263;stroke-opacity:1"
       id="path234-4"
       sodipodi:type="arc"
       sodipodi:cx="6.6146026"
       sodipodi:cy="6.6145906"
       sodipodi:rx="3.1996589"
       sodipodi:ry="3.1996582"
       sodipodi:start="0"
       sodipodi:end="6.2697463"
       sodipodi:open="true"
       sodipodi:arc-type="arc"
       d="M 9.8142614,6.6145906 A 3.1996589,3.1996582 0 0 1 6.6253526,9.8142307 3.1996589,3.1996582 0 0 1 3.4150159,6.6360906 3.1996589,3.1996582 0 0 1 6.5823529,3.415095 3.1996589,3.1996582 0 0 1 9.8139725,6.5715917" />
  </g>
</svg>
